<?xml version="1.0" encoding="UTF-8"?>
<!-- Generator: Adobe Illustrator 23.1.1, SVG Export Plug-In . SVG Version: 6.00 Build 0)  -->
<svg version="1.1" id="Layer_1" xmlns:serif="http://www.serif.com/" xmlns="http://www.w3.org/2000/svg" xmlns:xlink="http://www.w3.org/1999/xlink" x="0px" y="0px" viewBox="0 0 100 100" style="enable-background:new 0 0 100 100;" xml:space="preserve">
<style type="text/css">
	.st0{fill-rule:evenodd;clip-rule:evenodd;fill:#AFA0D7;}
	.st1{fill-rule:evenodd;clip-rule:evenodd;fill:#192337;}
</style>
<polygon class="st0" points="91,73.4 91,26.6 50,3.2 9,26.6 9,73.4 50,96.8 "/>
<g>
	<g>
		<path class="st1" d="M6.8,61.1c0-0.7,0.3-1.3,0.7-1.7c0.5-0.5,1.1-0.7,1.7-0.7c0.1,0,0.3,0,0.4,0c1.4,0,2.5,1.1,2.5,2.5    c0,3.5,0,9.5,0,9.5c0,0.8,0.4,1.5,1.1,1.9l35.7,20.6c0.7,0.4,1.5,0.4,2.2,0l4.7-2.7l2.7,4.6l-7.2,4.2c-0.8,0.4-1.8,0.4-2.5,0    L8.1,75.7c-0.8-0.4-1.3-1.3-1.3-2.2C6.8,73.5,6.8,65.3,6.8,61.1z M49.9,6.6c-0.4,0-0.7,0.1-1,0.3L13.2,27.5    c-0.7,0.4-1.1,1.1-1.1,1.9c0,0,0,3,0,5.3c0,0.7-0.3,1.3-0.7,1.7c-0.5,0.5-1.1,0.7-1.7,0.7c-0.1,0-0.3,0-0.4,0    c-1.4,0-2.5-1.1-2.5-2.5c0-3.1,0-8.2,0-8.2c0-0.9,0.5-1.7,1.3-2.2L48.7,0.8c0.4-0.2,0.8-0.3,1.2-0.3l0,0l0,0    c0.5,0,0.9,0.1,1.3,0.3l40.7,23.5c0.8,0.5,1.3,1.3,1.3,2.2v47c0,0.9-0.5,1.7-1.3,2.2L63.1,92.3l-2.7-4.6l26.3-15.2    c0.7-0.4,1.1-1.1,1.1-1.9V29.4c0-0.8-0.4-1.5-1.1-1.9L51.1,6.9C50.7,6.7,50.4,6.6,49.9,6.6L49.9,6.6L49.9,6.6L49.9,6.6z M41.5,19    c-0.2-0.4-0.6-0.8-1-0.9s-0.9-0.1-1.3,0.1c-5.2,3-21.6,12.5-21.6,12.5l0,0c-0.6,0.3-1,1-1,1.7v36.3c0,0.7,0.4,1.3,1,1.7l22.9,13.2    c0.4,0.2,0.8,0.3,1.3,0.1c0.4-0.2,0.7-0.5,0.9-0.9l0,0c0.2-0.5,0-1-0.4-1.3c-2.5-2.2-2.7-2.3-6.1-4.2c0,0,0,0-0.1,0    c-0.4-0.3-4.6-2.8-5.5-3.4c-0.1-0.1-0.2-0.1-0.4-0.2c-0.2-0.1-0.4-0.1-0.7-0.2l0,0c-0.5-0.2-1-0.3-1.5-0.5c-2.8-1-4.3-2.2-5.7-7.4    c-0.1-0.4-0.1-0.9,0.2-1.3l0,0l0,0c0,0,0.1-0.2,0.3-0.5c0.5-0.7,0.4-1.6-0.3-2.2c-0.3-0.3-0.5-0.5-0.5-0.5L21.9,61    c-0.4-0.6-0.4-0.7-0.2-1.3v-0.1c0.1-0.3,1.3-3.1,1.3-3.1l0,0c0.1-0.2,0.1-0.2,0.2-0.3l0,0c0,0,3.3-4.4,3.4-4.4l0,0    c0.6-0.6,0.7-0.7,1.5-0.5h0.1l4.6,1.3c0.1,0,0.1,0,0.2,0.1l0,0l5.5,2.6c0.2,0.1,0.3,0.1,0.6,0.5l0,0c0,0,2.3,3.5,3,4.5    c0,0.1,0.1,0.1,0.2,0.1c0.1,0,0.1,0,0.1-0.1l0,0c0-0.1,0.1-0.2,0.1-0.3c0-0.9,0-4.9,0-4.9s0,0,0-0.1c-0.4-3.4-0.4-3.4-0.8-6.9    c0,0-0.1-0.8,0.6-1.4l0,0l3.7-2.6l0,0c0.2-0.1,0.2-0.1,0.3-0.2l0,0c0,0,1-0.4,1.6-0.6c0.2-0.1,0.4-0.2,0.6-0.4    c0.1-0.1,0.1-0.1,0.2-0.2c0.3-0.3,0.5-0.8,0.4-1.3s-0.4-0.8-0.9-1l0,0c-0.1,0-0.1,0-0.2,0c-0.4,0-2.6-0.1-3.1-0.1    c-0.1,0-0.1,0-0.2,0c-0.2,0-0.3-0.1-0.6-0.3l0,0c0,0-4.1-3.4-4.7-3.9c-0.1,0-0.1-0.1-0.2-0.2c-0.5-0.5-3.1-3.4-3.8-4.2    c-0.1-0.1-0.2-0.2-0.4-0.3c-0.8-0.5-4-2.4-4.3-2.6c-0.1,0-0.1-0.1-0.1-0.1c-0.6-0.7-0.5-1.9,0.5-2.4l0,0c0,0,6.3-2.3,8.2-2.9    c0.3-0.1,0.6-0.3,0.8-0.6c0.3-0.5,0.9-1.3,1.3-1.8c0.3-0.5,0.4-1.1,0.2-1.6C41.6,19.2,41.6,19.1,41.5,19L41.5,19z M75.4,49.8    c0.1,0,0.2,0.1,0.3,0.2c0.2,0.4,0.6,1.4,0.6,1.4l0,0c0.4,0.7,0.8,0.9,1.4,0.8c0,0,0,0,0.1,0c0,0,3.3-0.4,3.4-0.4l0,0    c0.5-0.1,0.5-0.2,0.7-0.3l0,0l0,0c0.3-0.2,0.7-0.2,1-0.1c0.3,0.2,0.5,0.5,0.5,0.8v16.3c0,0.7-0.4,1.3-1,1.7c0,0-16.3,9.4-20,11.5    c-0.5,0.3-1,0.2-1.4-0.1c-0.2-0.1-0.3-0.4-0.4-0.6c-0.3-2.3-0.3-2.8-0.1-4.6c-0.1-0.7,0.3-1.3,0.9-1.6c1.8-1,6.9-3.6,7.3-3.8    c0,0,0,0,0.1,0c0.5-0.3,0.6-0.3,0.7-1l0,0c0,0,0.6-3.5,0.6-3.6c0,0,0,0,0-0.1c0.1-0.7,0-0.8-0.5-1.3c0,0-0.9-0.7-1.7-1.4    c-0.4-0.3-0.6-0.7-0.6-1.2s0.2-0.9,0.5-1.3c0.6-0.6,1.2-1.1,1.3-1.3l0,0c0.3-0.3,5-4.5,5.4-4.8c0,0,0,0,0.1,0    c0.3-0.3,0.4-0.4,0.4-1l0,0c0,0,0.1-3.2,0.2-4C75.2,49.9,75.3,49.8,75.4,49.8L75.4,49.8L75.4,49.8z M55.5,54.8L55.5,54.8    c1.5,0.1,2.4,2.8,3.5,4.8l0,0c0.9,1.6-2.1,3.7-4.1,5.8l0,0c-0.8,0.8-2.3,0.3-2.5-0.8l0,0c-0.3-2.3-0.4-4.5-0.6-6.8l0,0    C51.6,56.1,54.2,54.7,55.5,54.8L55.5,54.8z M63.2,45.8L63.2,45.8c2.3,0.2,3.2,4.6,4.3,8.9l0,0c0.4,1.8-3,2.8-5.5,4.2l0,0    c-0.8,0.4-1.8,0-2-0.9l0,0c-0.4-1.5-0.7-2.9-1-4.4l0,0l0,0v-0.1c-0.3-2.3-1.3-5.1,0.2-6l0,0C60.5,46.8,61.7,45.8,63.2,45.8    L63.2,45.8z M9.6,42.5c1.4,0,2.5,1.1,2.5,2.5c0,1.8,0,4.1,0,5.9c0,0.7-0.3,1.3-0.7,1.7c-0.5,0.5-1.1,0.7-1.7,0.7    c-0.1,0-0.3,0-0.4,0c-1.4,0-2.5-1.1-2.5-2.5c0-1.8,0-4.1,0-5.9c0-0.7,0.3-1.3,0.7-1.7c0.5-0.5,1.1-0.7,1.7-0.7    C9.4,42.5,9.5,42.5,9.6,42.5z M77.5,27.8c-0.3-0.2-0.6-0.2-0.9-0.2c-1.6,0.1-7,0.4-9.5,0.5c-0.8,0-1.4,0.6-1.5,1.4    s-0.3,1.7-0.4,2.4c-0.1,0.6,0.1,1.1,0.5,1.5c0.8,0.7,2,1.9,2.3,2.1l0.1,0.1c0.5,0.4,3.5,2.7,3.5,2.7c0.2,0.2,0.3,0.3,0.4,0.8l0,0    c0,0,0.2,1.3,0.2,2c0,0.2,0.1,0.4,0.3,0.4l0,0c0.4,0.2,1,0.2,1.3-0.2c0.4-0.4,1-1,1.4-1.4c0.3-0.3,0.5-0.7,0.5-1.1    c0-0.4,0-1,0-1.4c0-0.5-0.2-1-0.6-1.3c-1.2-1-3.6-3-3.6-3l0,0c-0.8-0.8-0.4-2.3,0.8-2.5l0,0l5-0.5l0,0c0.2,0,0.3-0.1,0.8,0.2l0,0    l3.4,1.8c0.6,0.4,0.6,0.4,0.8,1.1c0,0,0,0,0,0.1c0.1,0.4,0.6,5.2,0.7,6.2c0,0.1,0.1,0.2,0.2,0.2l0,0h0.1l0.1-0.1v-7    c0-0.7-0.4-1.3-1-1.7C82.4,30.6,78.8,28.6,77.5,27.8L77.5,27.8z M49.3,23.5C49.3,23.5,49.4,23.5,49.3,23.5    c2.2,0.2,4.4,1.1,6.6,1.7l0,0c1.6,0.5,2.4,4,2.1,6.4v0.1c-0.4,2.4-0.3,5.3-2.3,5.2l0,0c-3.1-0.3-7.1-0.4-7.9-1.4l0,0    c-1.4-2.2-3.6-4.8-2.9-6.2l0,0C46.4,26.8,47.7,23.5,49.3,23.5L49.3,23.5z M50.1,13.9L50.1,13.9c1.4,0.1,3.6,2.6,5.5,4.3l0,0    c0.7,0.7,0.4,2.2-0.6,2.5l0,0c-3.4,0.7-7.6,2-7.3-0.5l0,0C48.1,17.3,47.9,13.9,50.1,13.9L50.1,13.9z"/>
	</g>
</g>
</svg>